<?xml version="1.0" encoding="UTF-8"?>
<svg xmlns="http://www.w3.org/2000/svg" width="800" height="300" viewBox="0 0 800 300" role="img" aria-label="Habilidades Web">
  <defs>
    <linearGradient id="htmlBar" x1="0" y1="0" x2="1" y2="0"><stop stop-color="#e34c26"/><stop offset="1" stop-color="#f06529"/></linearGradient>
    <linearGradient id="cssBar" x1="0" y1="0" x2="1" y2="0"><stop stop-color="#264de4"/><stop offset="1" stop-color="#2965f1"/></linearGradient>
    <linearGradient id="jsBar" x1="0" y1="0" x2="1" y2="0"><stop stop-color="#f0db4f"/><stop offset="1" stop-color="#f7df1e"/></linearGradient>
    <linearGradient id="reactBar" x1="0" y1="0" x2="1" y2="0"><stop stop-color="#61dafb"/><stop offset="1" stop-color="#21a1c4"/></linearGradient>
    <linearGradient id="nextBar" x1="0" y1="0" x2="1" y2="0"><stop stop-color="#ffffff"/><stop offset="1" stop-color="#888888"/></linearGradient>
    <linearGradient id="tsBar" x1="0" y1="0" x2="1" y2="0"><stop stop-color="#3178c6"/><stop offset="1" stop-color="#235a97"/></linearGradient>
    <linearGradient id="iconGrad" x1="0" y1="0" x2="1" y2="1"><stop stop-color="#e34c26"/><stop offset="1" stop-color="#f06529"/></linearGradient>
  </defs>
  <rect width="800" height="300" rx="16" fill="#0d1117" stroke="#30363d"/>
  <rect x="24" y="24" width="40" height="40" rx="10" fill="url(#iconGrad)"/>
  <text x="44" y="50" text-anchor="middle" fill="#fff" font-family="Consolas, monospace" font-size="14" font-weight="800">&lt;/&gt;</text>
  <text x="80" y="42" fill="#f0f6fc" font-family="Segoe UI, system-ui, sans-serif" font-size="18" font-weight="700">Web &amp; Frontend</text>
  <text x="80" y="60" fill="#8b949e" font-family="Segoe UI, system-ui, sans-serif" font-size="11">HTML | CSS | JavaScript | React | Next.js | TypeScript</text>
  <line x1="24" y1="78" x2="776" y2="78" stroke="#21262d"/>
  <!-- HTML 85% -->
  <text x="120" y="108" text-anchor="end" fill="#c9d1d9" font-family="Consolas, monospace" font-size="12">HTML</text>
  <rect x="132" y="98" width="580" height="10" rx="5" fill="#21262d"/>
  <rect x="132" y="98" width="493" height="10" rx="5" fill="url(#htmlBar)"/>
  <text x="724" y="108" fill="#8b949e" font-family="Consolas, monospace" font-size="11">85%</text>
  <!-- CSS 85% -->
  <text x="120" y="138" text-anchor="end" fill="#c9d1d9" font-family="Consolas, monospace" font-size="12">CSS</text>
  <rect x="132" y="128" width="580" height="10" rx="5" fill="#21262d"/>
  <rect x="132" y="128" width="493" height="10" rx="5" fill="url(#cssBar)"/>
  <text x="724" y="138" fill="#8b949e" font-family="Consolas, monospace" font-size="11">85%</text>
  <!-- JS 75% -->
  <text x="120" y="168" text-anchor="end" fill="#c9d1d9" font-family="Consolas, monospace" font-size="12">JS</text>
  <rect x="132" y="158" width="580" height="10" rx="5" fill="#21262d"/>
  <rect x="132" y="158" width="435" height="10" rx="5" fill="url(#jsBar)"/>
  <text x="724" y="168" fill="#8b949e" font-family="Consolas, monospace" font-size="11">75%</text>
  <!-- React 70% -->
  <text x="120" y="198" text-anchor="end" fill="#c9d1d9" font-family="Consolas, monospace" font-size="12">React</text>
  <rect x="132" y="188" width="580" height="10" rx="5" fill="#21262d"/>
  <rect x="132" y="188" width="406" height="10" rx="5" fill="url(#reactBar)"/>
  <text x="724" y="198" fill="#8b949e" font-family="Consolas, monospace" font-size="11">70%</text>
  <!-- Next 65% -->
  <text x="120" y="228" text-anchor="end" fill="#c9d1d9" font-family="Consolas, monospace" font-size="12">Next.js</text>
  <rect x="132" y="218" width="580" height="10" rx="5" fill="#21262d"/>
  <rect x="132" y="218" width="377" height="10" rx="5" fill="url(#nextBar)"/>
  <text x="724" y="228" fill="#8b949e" font-family="Consolas, monospace" font-size="11">65%</text>
  <!-- TS 60% -->
  <text x="120" y="258" text-anchor="end" fill="#c9d1d9" font-family="Consolas, monospace" font-size="12">TS</text>
  <rect x="132" y="248" width="580" height="10" rx="5" fill="#21262d"/>
  <rect x="132" y="248" width="348" height="10" rx="5" fill="url(#tsBar)"/>
  <text x="724" y="258" fill="#8b949e" font-family="Consolas, monospace" font-size="11">60%</text>
  <!-- code preview -->
  <rect x="24" y="272" width="752" height="1" fill="#21262d"/>
</svg>
